<svg width="14" height="17" viewBox="0 0 14 17" fill="none" xmlns="http://www.w3.org/2000/svg">
<path d="M13.565 5.38295C13.0138 5.73348 12.5669 6.22578 12.2711 6.80829C11.9754 7.3908 11.8416 8.04211 11.884 8.69402C11.9263 9.34594 12.1431 9.97449 12.5117 10.5139C12.8803 11.0533 13.3871 11.4836 13.979 11.7599C13.5715 13.176 12.8007 14.4609 11.743 15.4869C11.4549 15.7743 11.0821 15.9615 10.6796 16.0211C10.2771 16.0807 9.86606 16.0095 9.50704 15.8179C8.96702 15.5482 8.37167 15.4078 7.76804 15.4078C7.16441 15.4078 6.56906 15.5482 6.02904 15.8179C5.6644 16.0129 5.24432 16.0779 4.8378 16.0025C4.43128 15.9271 4.0625 15.7157 3.79204 15.4029C2.68254 14.3771 1.85025 13.0875 1.37246 11.6539C0.894664 10.2204 0.786853 8.68932 1.05904 7.20295C1.12926 6.59678 1.34406 6.01635 1.68535 5.5105C2.02665 5.00465 2.48445 4.58817 3.02024 4.29612C3.55603 4.00406 4.15413 3.84498 4.76422 3.83224C5.37431 3.81951 5.97853 3.9535 6.52604 4.22295C6.90746 4.38688 7.32042 4.46445 7.73533 4.4501C8.15024 4.43576 8.55685 4.32984 8.92604 4.13995C9.73375 3.7618 10.6485 3.67899 11.511 3.90595C12.3735 4.1329 13.1291 4.65523 13.646 5.38195" fill="black"/>
<path d="M10.6661 0C11.0801 1.656 9.17508 3.975 7.60408 3.561C7.57026 3.12591 7.62273 2.68843 7.75847 2.27368C7.89422 1.85894 8.11056 1.47509 8.39509 1.1442C8.67961 0.813309 9.02671 0.54189 9.41643 0.345533C9.80616 0.149175 10.2308 0.0317497 10.6661 0" fill="black"/>
</svg>
