<svg width="24" height="24" viewBox="0 0 24 24" fill="none" xmlns="http://www.w3.org/2000/svg">
<path d="M17.1 9.21L12.93 1.48C12.52 0.720004 11.43 0.720004 11.02 1.48L6.85002 9.21C6.51002 9.84 6.49002 10.59 6.80002 11.23L8.39002 14.53C8.84002 15.47 9.80002 16.07 10.84 16.07H11.96H13.66C14.35 16.07 14.98 15.67 15.28 15.05L17.13 11.23C17.45 10.59 17.44 9.84 17.1 9.21ZM16.16 10.27L14.24 13.94C14.06 14.28 13.71 14.49 13.33 14.49H11.15C10.53 14.49 9.96002 14.13 9.70002 13.57L8.11002 10.18C7.95002 9.84 8.20002 9.45 8.37002 9.11L11.7 1.91C11.85 1.59 12.3 1.58 12.46 1.9L16.15 9.17C16.32 9.51 16.33 9.92 16.16 10.27Z" fill="#959799"/>
<path d="M13.26 11.13C13.03 10.61 12.82 10.08 12.79 9.51L12.46 4.24C12.45 4.12 12.36 4.03 12.24 4.03C11.91 4.03 11.63 4.29 11.62 4.63L11.51 9.2C11.5 9.83 11.44 10.49 11.14 11.04C11.06 11.19 11.01 11.37 11.01 11.55C11.01 12.2 11.53 12.72 12.18 12.72C12.83 12.72 13.35 12.2 13.35 11.55C13.35 11.4 13.32 11.26 13.26 11.13Z" fill="#959799"/>
<path d="M7.14001 23.09C6.63001 23.09 6.28001 22.58 6.46001 22.1L8.08001 17.86C8.27001 17.18 8.89001 16.71 9.59001 16.71H14.61C15.13 16.71 15.59 17.04 15.77 17.52L17.5 22.35C17.63 22.71 17.7 23.08 17.32 23.08C16.96 23.08 16.83 22.88 16.67 22.56L14.56 18.41C14.5 18.29 14.37 18.21 14.23 18.21H10.17C10.02 18.21 9.89001 18.31 9.86001 18.46L9.13001 21.66C8.94001 22.49 8.20001 23.08 7.35001 23.08H7.14001V23.09Z" fill="#959799"/>
</svg>
