<svg width="22" height="20" viewBox="0 0 22 20" fill="none" xmlns="http://www.w3.org/2000/svg">
<path d="M8.1641 1.0105H1.42036C0.998119 1.0105 0.654297 1.40712 0.654297 1.8942V7.1268C0.654297 7.61388 0.998119 8.0105 1.42036 8.0105H8.1641C8.58634 8.0105 8.93016 7.61388 8.93016 7.1268V1.8942C8.93016 1.40712 8.58634 1.0105 8.1641 1.0105ZM8.36919 6.67451C8.36919 6.98068 8.15203 7.23117 7.88663 7.23117H1.99339C1.72799 7.23117 1.51084 6.98068 1.51084 6.67451V2.16557C1.51084 1.8594 1.72799 1.60891 1.99339 1.60891H7.89266C8.15807 1.60891 8.37522 1.8594 8.37522 2.16557V6.67451H8.36919Z" fill="#959799" stroke="#959799" stroke-width="0.5"/>
<path d="M8.1641 11.9895H1.42036C0.998119 11.9895 0.654297 12.3861 0.654297 12.8732V18.1058C0.654297 18.5929 0.998119 18.9895 1.42036 18.9895H8.1641C8.58634 18.9895 8.93016 18.5929 8.93016 18.1058V12.8732C8.93016 12.3861 8.58634 11.9895 8.1641 11.9895ZM8.36919 17.6535C8.36919 17.9597 8.15204 18.2102 7.88663 18.2102H1.99339C1.72799 18.2102 1.51084 17.9597 1.51084 17.6535V13.1446C1.51084 12.8384 1.72799 12.5879 1.99339 12.5879H7.89266C8.15807 12.5879 8.37522 12.8384 8.37522 13.1446V17.6535H8.36919Z" fill="#959799" stroke="#959799" stroke-width="0.5"/>
<path d="M20.2471 1.0105H13.5034C13.0811 1.0105 12.7373 1.40712 12.7373 1.8942V7.1268C12.7373 7.61388 13.0811 8.0105 13.5034 8.0105H20.2471C20.6693 8.0105 21.0132 7.61388 21.0132 7.1268V1.8942C21.0132 1.40712 20.6693 1.0105 20.2471 1.0105ZM20.4522 6.67451C20.4522 6.98068 20.235 7.23117 19.9696 7.23117H14.0764C13.811 7.23117 13.5938 6.98068 13.5938 6.67451V2.16557C13.5938 1.8594 13.811 1.60891 14.0764 1.60891H19.9757C20.2411 1.60891 20.4582 1.8594 20.4582 2.16557V6.67451H20.4522Z" fill="#959799" stroke="#959799" stroke-width="0.5"/>
<path d="M20.2471 11.9895H13.5034C13.0811 11.9895 12.7373 12.3861 12.7373 12.8732V18.1058C12.7373 18.5929 13.0811 18.9895 13.5034 18.9895H20.2471C20.6693 18.9895 21.0132 18.5929 21.0132 18.1058V12.8732C21.0132 12.3861 20.6693 11.9895 20.2471 11.9895ZM20.4522 17.6535C20.4522 17.9597 20.235 18.2102 19.9696 18.2102H14.0764C13.811 18.2102 13.5938 17.9597 13.5938 17.6535V13.1446C13.5938 12.8384 13.811 12.5879 14.0764 12.5879H19.9757C20.2411 12.5879 20.4582 12.8384 20.4582 13.1446V17.6535H20.4522Z" fill="#959799" stroke="#959799" stroke-width="0.5"/>
</svg>
