<svg width="24" height="24" viewBox="0 0 24 24" fill="none" xmlns="http://www.w3.org/2000/svg">
<path d="M12.13 19.08C11.78 19.08 11.48 18.97 11.21 18.74C10.95 18.51 10.82 18.2 10.82 17.79C10.82 17.43 10.95 17.13 11.2 16.88C11.45 16.63 11.76 16.51 12.13 16.51C12.49 16.51 12.79 16.63 13.04 16.88C13.29 17.13 13.41 17.43 13.41 17.79C13.41 18.19 13.28 18.51 13.02 18.74C12.76 18.96 12.47 19.08 12.13 19.08Z" fill="#959799"/>
<path d="M16.49 6.88001C16.09 6.28001 15.53 5.80001 14.8 5.45001C14.07 5.10001 13.23 4.92001 12.28 4.92001C11.26 4.92001 10.36 5.13001 9.6 5.55001C8.83 5.97001 8.25 6.50001 7.85 7.14001C7.76 7.29001 7.68 7.43001 7.61 7.58001C7.41 7.98001 7.66 8.47001 8.1 8.56001C8.31 8.61001 8.52 8.50001 8.61 8.31001C9 7.47001 10.31 6.10001 12.2 6.10001C14.37 6.10001 15.34 7.47001 15.3 8.48001C15.23 10.24 13.27 11.15 12.18 12.24C11.78 12.64 11.52 12.98 11.31 13.47C10.79 14.66 11.24 15.75 12.22 15.75H12.41C12.94 15.75 13.07 15.31 13.1 15.1C13.1 15.07 13.11 15.05 13.11 15.02C13.11 15.01 13.11 15 13.11 15C13.13 14.87 13.15 14.74 13.18 14.62C13.22 14.47 13.24 14.36 13.27 14.28C13.31 14.15 13.36 14.02 13.42 13.9C13.49 13.77 13.59 13.63 13.72 13.48C13.85 13.33 14.03 13.15 14.26 12.94C15.07 12.22 15.62 11.71 15.94 11.4C16.25 11.1 16.52 10.73 16.75 10.31C16.98 9.89001 17.09 9.40001 17.09 8.84001C17.08 8.14001 16.88 7.48001 16.49 6.88001Z" fill="#959799"/>
<path d="M12 1.35001C6.11998 1.35001 1.34998 6.12001 1.34998 12C1.34998 17.88 6.11998 22.65 12 22.65C17.88 22.65 22.65 17.88 22.65 12C22.65 6.12001 17.88 1.35001 12 1.35001ZM12.31 20.56C7.40998 20.56 3.43998 16.59 3.43998 11.69C3.43998 6.79001 7.40998 2.82001 12.31 2.82001C17.21 2.82001 21.18 6.79001 21.18 11.69C21.18 16.59 17.21 20.56 12.31 20.56Z" fill="#959799"/>
</svg>
