<svg width="15" height="17" viewBox="0 0 15 17" fill="none" xmlns="http://www.w3.org/2000/svg">
<path d="M0.0979814 0.736084L7.27498 8.00508L0.0979814 15.1811C0.0576215 15.061 0.0268581 14.938 0.00598145 14.8131C0.00598145 10.2744 0.00598145 5.70475 0.00598145 1.10408C0.0303014 0.979917 0.0610089 0.857088 0.0979814 0.736084Z" fill="black"/>
<path d="M8.01094 8.74097L10.2189 10.765L8.83894 11.593L1.56994 15.733L0.741943 16.01L8.01094 8.74097Z" fill="black"/>
<path d="M10.127 5.15204L8.01098 7.17704L0.833984 0.092041L1.47798 0.276041L10.034 5.15204H10.126" fill="black"/>
<path d="M11.0469 10.3041L8.74695 8.00406L11.0469 5.61206L12.5189 6.44006L13.6189 7.08406L14.0789 7.45206C14.1566 7.52111 14.2187 7.60582 14.2613 7.70062C14.3039 7.79541 14.3259 7.89815 14.3259 8.00206C14.3259 8.10597 14.3039 8.20871 14.2613 8.3035C14.2187 8.3983 14.1566 8.48301 14.0789 8.55206L13.8029 8.82806L11.0469 10.3961" fill="black"/>
</svg>
