<svg width="21" height="22" viewBox="0 0 21 22" fill="none" xmlns="http://www.w3.org/2000/svg">
<path d="M20.6659 9.88171L11.7284 1.31087C11.2609 0.861707 10.5275 0.861707 10.06 1.31087L0.6367 9.56087C0.150867 10.0192 -0.1058 10.4684 1.00337 10.4684H2.6442C2.9742 10.4684 3.24003 10.7342 3.24003 11.0642L2.96503 16.8209L2.8367 19.2317C2.7817 20.2034 3.5517 21.01 4.52337 21.01H17.2834C18.2459 21.01 19.0067 20.2034 18.9609 19.25L18.7684 15.6109L18.5575 10.8167C18.5575 10.6242 18.7134 10.4684 18.9059 10.4684H20.4367C20.7392 10.4684 20.895 10.0925 20.6659 9.88171ZM18.7225 9.89087H18.1359C17.7509 9.88171 17.43 10.175 17.4025 10.56L17.5309 18.9475C17.5309 19.2225 17.32 19.4425 17.045 19.4517C14.6342 19.4975 7.02587 19.47 4.91753 19.4425C4.6517 19.4425 4.44087 19.2225 4.44087 18.9659L4.45003 9.82671C4.44087 9.51504 4.1842 9.26754 3.86337 9.26754L3.14837 9.27671C3.01087 9.27671 2.9467 9.11171 3.04753 9.02004L10.5092 2.36504C10.6284 2.25504 10.8117 2.25504 10.9309 2.36504L18.915 9.38671C19.135 9.56087 19.5842 9.89087 18.7225 9.89087Z" fill="#D11243"/>
<path d="M12.3698 11.4584H10.0415C9.5648 11.4584 9.18896 11.8434 9.18896 12.3109V16.3625C9.18896 16.8392 9.57397 17.215 10.0415 17.215H12.3698C12.8465 17.215 13.2223 16.83 13.2223 16.3625V12.3109C13.2223 11.8434 12.8465 11.4584 12.3698 11.4584Z" fill="#4B4F54"/>
</svg>
