<svg width="24" height="24" viewBox="0 0 24 24" fill="none" xmlns="http://www.w3.org/2000/svg">
<path d="M13.1305 21.2935C13.1305 21.1848 13.1305 21.1848 13.1305 21.2935C14.2501 19.8695 15.261 18.5543 16.2827 17.1304C17.2936 15.7065 18.3153 14.1848 19.0218 12.5652C19.9349 10.5326 19.9349 8.40217 19.0218 6.36956C17.7066 3.63043 14.9566 2 11.9131 2C11.3044 2 10.7936 2.09783 10.1849 2.20652C6.83705 2.91304 4.29358 5.95652 4.29358 9.41303C4.29358 10.4239 4.5001 11.4456 5.1088 12.663C5.92401 14.4891 6.83705 15.913 7.95662 17.4348C8.96749 18.75 9.98922 20.0761 11.0001 21.3913C11.0979 21.4891 11.0979 21.4891 11.2066 21.5978C11.4131 21.8043 11.7175 22 12.0218 22C12.2284 22 12.5327 22 12.7284 21.6956C12.8262 21.5978 12.8262 21.5978 12.9349 21.4891C13.0327 21.3913 13.1305 21.3913 13.1305 21.2935C13.0327 21.2935 13.1305 21.2935 13.1305 21.2935ZM12.2175 20.6848C12.1197 20.7826 11.9131 20.7826 11.8153 20.6848L9.47836 17.4348C9.17401 17.0326 8.96749 16.7282 8.66314 16.3152C7.7501 15.0978 6.93488 13.8804 6.32619 12.4565C5.81532 11.4456 5.61966 10.6304 5.61966 9.71738C5.61966 6.86956 7.7501 4.13043 10.5979 3.52174C10.6957 3.52174 10.6957 3.52174 10.8044 3.42391C15.8805 2.51087 19.9457 7.8913 17.6088 12.5652C17.0001 13.7826 16.2936 14.9022 15.5762 15.913C15.3697 16.1195 15.2718 16.4239 15.0653 16.6195L12.2175 20.6848Z" fill="#4B4F54"/>
<path d="M12.0109 12.7609C13.5326 12.7609 14.75 11.5435 14.75 10.0217C14.75 8.5 13.5326 7.17392 12.0109 7.17392C10.4891 7.17392 9.27173 8.39131 9.27173 9.91304C9.27173 11.4348 10.4891 12.7609 12.0109 12.7609Z" fill="#D11243"/>
</svg>
