<svg width="85" height="24" viewBox="0 0 85 24" fill="none" xmlns="http://www.w3.org/2000/svg">
<path d="M27.6084 23.7922L28.8135 16.358H30.6395L32.0608 20.3219L33.4728 16.358H35.2988L36.5039 23.7922H34.6711L34.0601 19.5131L32.3845 23.7922H31.6506L30.0599 19.5131L29.4489 23.7922H27.6084Z" fill="#464646"/>
<path d="M42.0858 17.9948H39.8925V19.2371H41.9621V20.8739H39.8925V22.1538H42.0858V23.7905H38.0474V16.3564H42.0858V17.9948Z" fill="#464646"/>
<path d="M48.138 22.501H45.501L45.0772 23.793H43.1099L45.8111 16.3588H47.8257L50.5276 23.793H48.5603L48.138 22.501ZM47.6485 21.0323L46.8207 18.5571L45.9921 21.0323H47.6485Z" fill="#464646"/>
<path d="M54.0963 17.9948V23.793H52.252V17.9948H50.7368V16.358H55.6122V17.9948H54.0963Z" fill="#464646"/>
<path d="M56.421 20.0755C56.4114 19.2936 56.6304 18.5274 57.0485 17.8797C57.4666 17.2319 58.0639 16.7336 58.7601 16.4516C59.7814 16.0508 60.9067 16.0508 61.9279 16.4516C62.3925 16.6398 62.8164 16.9232 63.1751 17.2852C63.5233 17.6398 63.8001 18.0638 63.9892 18.5324C64.3783 19.5207 64.3783 20.6303 63.9892 21.6186C63.8002 22.0872 63.5233 22.5113 63.1751 22.8658C62.8164 23.2278 62.3925 23.5112 61.9279 23.6994C60.9067 24.1002 59.7814 24.1002 58.7601 23.6994C58.0649 23.4159 57.4686 22.9172 57.0507 22.2698C56.6328 21.6224 56.4131 20.857 56.421 20.0755ZM58.3508 20.0755C58.3479 20.3571 58.4026 20.6362 58.5112 20.8939C58.7181 21.3871 59.1023 21.7751 59.5804 21.9738C60.0732 22.178 60.6218 22.178 61.1146 21.9738C61.3521 21.875 61.5693 21.7294 61.7546 21.545C61.9403 21.3607 62.0893 21.1397 62.1929 20.8947C62.2986 20.636 62.3531 20.3576 62.3531 20.0763C62.3531 19.795 62.2986 19.5166 62.1929 19.2579C62.0891 19.013 61.9402 18.792 61.7546 18.6076C61.5693 18.4232 61.3521 18.2777 61.1146 18.1788C60.6218 17.9746 60.0732 17.9746 59.5804 18.1788C59.3439 18.2769 59.128 18.4225 58.945 18.6076C58.7619 18.793 58.6149 19.0139 58.512 19.2579C58.4032 19.5153 58.3483 19.7941 58.3508 20.0755Z" fill="#464646"/>
<path d="M67.6702 23.7922H65.8252V16.3581H68.7616C69.093 16.3342 69.4256 16.3794 69.7402 16.4911C70.0548 16.6027 70.3451 16.7785 70.5945 17.0084C71.0049 17.5228 71.2297 18.172 71.2297 18.8424C71.2297 19.5128 71.0049 20.1619 70.5945 20.6763C70.3451 20.9062 70.0548 21.082 69.7402 21.1937C69.4256 21.3053 69.093 21.3505 68.7616 21.3267H67.6702V23.7922ZM67.6702 19.7691H68.2812C68.9589 19.7691 69.2977 19.4603 69.2977 18.8428C69.2977 18.2252 68.9589 17.9161 68.2812 17.9156H67.6702V19.7691Z" fill="#464646"/>
<path d="M74.4283 16.358V23.7922H72.584V16.358H74.4283Z" fill="#464646"/>
<path d="M80.6408 22.501H78.0053L77.5814 23.793H75.6165L78.3176 16.3588H80.3323L83.0342 23.793H81.0669L80.6408 22.501ZM80.1513 21.0323L79.3226 18.5571L78.4941 21.0323H80.1513Z" fill="#464646"/>
<g clip-path="url(#clip0_6539_6687)">
<path d="M12.7932 2.34726C13.001 1.43572 12.5027 0.540829 11.6803 0.348468C10.8579 0.156107 10.0228 0.739116 9.81497 1.65066C9.60717 2.5622 10.1054 3.45709 10.9278 3.64945C11.7502 3.84181 12.5854 3.2588 12.7932 2.34726Z" fill="#D11243"/>
<path d="M24.3911 2.34678C24.5988 1.43524 24.1005 0.540422 23.2781 0.348146C22.4557 0.15587 21.6206 0.73895 21.4129 1.65049C21.2052 2.56203 21.7036 3.45685 22.526 3.64913C23.3484 3.8414 24.1834 3.25832 24.3911 2.34678Z" fill="#D11243"/>
<path d="M8.25872 13.1565C10.0782 15.8096 12.3459 17.2185 15.8739 17.2185C19.7871 17.2185 22.6283 15.4239 24.2808 13.084C25.3305 13.6528 25.6791 14.2929 25.6791 14.9902C25.6791 16.9983 21.9936 20.25 16.4047 20.25C11.5807 20.25 8.24982 17.4645 7.30406 14.8954C6.96301 13.9693 7.47888 13.1707 8.25872 13.1565Z" fill="#D11243"/>
<path d="M48.6779 12.3451C48.6779 14.0131 47.195 15.4976 45.4201 15.4976C43.462 15.4976 42.3756 14.298 42.3756 13.0971C42.3756 11.8962 43.249 11.0582 44.3203 11.465C44.0724 11.6481 43.9931 11.878 43.9931 12.1175C43.9931 12.4562 44.2493 12.8794 44.7893 12.8794C45.2375 12.8794 45.6593 12.4892 45.6593 11.8089C45.6593 10.7926 44.4678 9.77651 43.7132 8.46692C43.5847 9.17186 43.307 9.82303 42.8716 10.4377C41.8932 11.8184 40.4825 12.9219 39.0323 12.9219C38.3273 12.9219 37.5303 12.3757 37.5303 11.3918C37.5303 11.282 37.5363 11.1688 37.5468 11.0534C36.6588 12.1402 35.5326 12.9221 34.4343 12.9221C33.623 12.9221 32.8894 12.3875 32.8894 11.3918C32.8894 10.1722 34.0195 7.8209 34.0195 6.16874C34.0195 5.84693 33.9291 5.48054 33.7242 5.24357C34.0549 4.81214 34.4246 4.43577 35.1866 4.43577C35.9253 4.43577 36.6197 4.95751 36.6197 5.80846C36.6197 7.02146 35.8355 8.80578 35.8355 9.83639C35.8355 10.1505 36.0374 10.3348 36.3276 10.3348C37.4097 10.3348 38.6391 7.73042 38.6391 6.16858C38.6391 5.83599 38.5347 5.45027 38.3508 5.16389C38.6815 4.73246 39.1377 4.42836 39.8132 4.42836C40.4655 4.42836 41.1749 4.94704 41.1749 5.73602C41.1749 7.02967 40.448 9.03325 40.448 9.8351C40.448 10.1123 40.6099 10.3348 40.9583 10.3348C41.8925 10.3348 43.1074 8.2087 43.1074 6.42872C43.1074 6.42872 43.1081 6.40828 43.1085 6.39862C43.1241 4.95493 44.2423 4.10398 45.3278 4.10398C45.9767 4.10398 46.3984 4.3886 46.564 4.7001C45.9347 4.7001 45.6229 5.31569 45.6229 6.00759C45.6223 8.25667 48.6779 9.48432 48.6779 12.3451ZM10.5236 4.42868C9.84803 4.42868 9.36474 4.73745 9.01034 5.24599C9.22759 5.52384 9.34965 5.88702 9.34965 6.45818C9.34965 7.57797 8.24083 10.4637 8.24083 11.4011C8.24083 12.3387 9.03784 12.9221 9.74283 12.9221C10.3504 12.9221 11.1056 12.5415 11.5417 11.8628C11.2407 11.5372 11.0584 10.9844 11.0584 10.3804C11.0584 9.42653 11.8853 7.10098 11.8853 5.80749C11.8853 5.01852 11.2497 4.42868 10.5236 4.42868ZM22.1277 4.42868C21.4521 4.42868 20.9686 4.73745 20.6142 5.24599C20.8315 5.52384 20.9535 5.88702 20.9535 6.45818C20.9535 7.57797 19.8449 10.4637 19.8449 11.4011C19.8449 12.3387 20.6419 12.9221 21.3469 12.9221C21.9544 12.9221 22.7096 12.5415 23.1457 11.8628C22.8447 11.5372 22.6624 10.9844 22.6624 10.3804C22.6624 9.42653 23.4893 7.10098 23.4893 5.80749C23.4892 5.01852 22.8538 4.42868 22.1277 4.42868ZM32.5598 7.77164C32.5598 10.4691 30.3846 12.9221 27.6221 12.9221C25.7162 12.9221 23.9763 11.8847 23.9763 9.57914C23.9763 6.88173 26.1523 4.42868 28.9139 4.42868C30.8121 4.42884 32.5598 5.46621 32.5598 7.77164ZM29.7891 8.86084C30.0287 7.48412 29.6066 6.34405 28.7751 6.19546C27.9438 6.04704 26.9888 7.11306 26.7492 8.48978C26.5116 9.85507 27.0038 11.0196 27.8351 11.168C28.6666 11.3166 29.5494 10.2376 29.7891 8.86084ZM17.2162 7.4347C17.4189 7.71352 17.7585 7.92167 18.2734 7.92167C19.0177 7.92167 19.586 7.22237 19.586 6.16407C19.586 5.30008 18.8107 4.42868 17.334 4.42868C14.73 4.42868 12.3725 6.94403 12.3725 9.68475C12.3725 11.6267 13.6346 12.9223 15.6899 12.9223C17.6806 12.9223 19.1423 11.6563 19.1423 10.427C19.1423 10.1014 18.8956 9.86295 18.4802 9.80951C18.038 10.5214 17.3129 10.8796 16.6386 10.8796C15.8029 10.8796 15.107 10.1151 15.107 9.08106C15.107 7.70773 16.1577 6.19546 17.0408 6.19546C17.3822 6.19546 17.5524 6.41021 17.5524 6.73636C17.5525 7.0089 17.4651 7.22542 17.2162 7.4347ZM6.73041 9.57158C6.36234 10.0341 5.30152 10.2636 3.66968 10.0618C4.83397 7.11338 5.61365 4.30473 5.61365 2.22613C5.61381 1.05836 5.03008 0.31221 3.97736 0.31221C3.35406 0.31221 2.68292 0.584592 2.22538 1.27537C2.53067 1.63194 2.63445 2.28649 2.63445 2.85396C2.63445 6.992 0.726562 9.89934 0.726562 11.6004C0.726562 12.3017 1.12785 12.6814 1.5571 12.9147C1.86414 12.6597 2.39734 12.4799 2.77256 12.4799C3.6344 12.4799 4.95856 13.0622 6.36091 13.0395C7.24374 13.0251 7.72083 12.0922 7.70955 11.3781C7.69985 10.7627 7.34624 10.0033 6.73041 9.57158Z" fill="#464646"/>
</g>
<defs>
<clipPath id="clip0_6539_6687">
<rect width="47.9513" height="20.25" fill="white" transform="translate(0.726562)"/>
</clipPath>
</defs>
</svg>
