<svg width="24" height="25" viewBox="0 0 24 25" fill="none" xmlns="http://www.w3.org/2000/svg">
<path d="M11.1936 1.70428C8.85361 1.70428 6.95361 3.60428 6.95361 5.94428C6.95361 8.28428 8.85361 10.1843 11.1936 10.1843C13.5336 10.1843 15.4336 8.28428 15.4336 5.94428C15.4336 3.60428 13.5436 1.70428 11.1936 1.70428ZM11.3336 8.91428C9.58361 8.91428 8.17361 7.49428 8.17361 5.75428C8.17361 4.00428 9.59361 2.59428 11.3336 2.59428C13.0736 2.59428 14.4936 4.01428 14.4936 5.75428C14.4936 7.50428 13.0736 8.91428 11.3336 8.91428Z" fill="#959799"/>
<path d="M11.6838 12.1546C17.9638 12.0546 19.1338 16.8246 19.4938 18.7346C19.5638 19.1246 19.6538 19.3346 19.9838 19.3346C20.2138 19.3346 20.3938 19.0846 20.3638 18.8046C20.1838 16.9846 18.9738 11.0246 11.1138 11.0246C4.25376 11.0246 2.79376 16.1646 2.48376 18.3546C2.41376 18.8646 2.73376 19.3246 3.16376 19.3246C3.91376 19.3246 4.38376 19.8646 4.27376 18.9646C3.98376 16.4346 5.56376 12.2446 11.6838 12.1546Z" fill="#959799"/>
<path d="M2.68359 19.0941C2.68359 19.0941 4.49359 21.3841 11.5936 21.3841C18.6936 21.3841 20.2436 19.2241 20.2436 19.2241L19.7136 18.1541C19.7136 18.1541 18.7236 20.2441 11.4636 20.2841C4.79359 20.3141 3.71359 17.2941 3.71359 17.2941L2.68359 19.0941Z" fill="#959799"/>
<mask id="path-4-outside-1_2434_72201" maskUnits="userSpaceOnUse" x="11.1377" y="10.2961" width="13" height="14" fill="black">
<rect fill="white" x="11.1377" y="10.2961" width="13" height="14"/>
<path fill-rule="evenodd" clip-rule="evenodd" d="M15.5301 15.1965C15.5301 14.1972 16.3387 13.3886 17.3379 13.3886C18.3372 13.3886 19.1458 14.1972 19.1458 15.1965H20.2383C20.2383 13.5938 18.9406 12.2961 17.3379 12.2961C15.7353 12.2961 14.4375 13.5938 14.4375 15.1965H15.5301ZM14.2528 15.7785H20.4231C21.0302 15.7785 21.5382 16.2741 21.5258 16.8936V21.1806C21.5258 21.8001 21.0302 22.2957 20.4107 22.2957H14.2528C13.6333 22.2957 13.1377 21.8001 13.1377 21.1806V16.8936C13.1377 16.2741 13.6333 15.7785 14.2528 15.7785ZM17.6477 20.685V19.0371C18.0566 18.9008 18.3539 18.5415 18.3539 18.0831C18.3539 17.5255 17.8955 17.0671 17.338 17.0671C16.7804 17.0671 16.322 17.5255 16.322 18.0831C16.322 18.5415 16.6193 18.9008 17.0282 19.0371V20.685C17.0282 20.8585 17.1645 20.9948 17.338 20.9948C17.5114 20.9948 17.6477 20.8585 17.6477 20.685Z"/>
</mask>
<path fill-rule="evenodd" clip-rule="evenodd" d="M15.5301 15.1965C15.5301 14.1972 16.3387 13.3886 17.3379 13.3886C18.3372 13.3886 19.1458 14.1972 19.1458 15.1965H20.2383C20.2383 13.5938 18.9406 12.2961 17.3379 12.2961C15.7353 12.2961 14.4375 13.5938 14.4375 15.1965H15.5301ZM14.2528 15.7785H20.4231C21.0302 15.7785 21.5382 16.2741 21.5258 16.8936V21.1806C21.5258 21.8001 21.0302 22.2957 20.4107 22.2957H14.2528C13.6333 22.2957 13.1377 21.8001 13.1377 21.1806V16.8936C13.1377 16.2741 13.6333 15.7785 14.2528 15.7785ZM17.6477 20.685V19.0371C18.0566 18.9008 18.3539 18.5415 18.3539 18.0831C18.3539 17.5255 17.8955 17.0671 17.338 17.0671C16.7804 17.0671 16.322 17.5255 16.322 18.0831C16.322 18.5415 16.6193 18.9008 17.0282 19.0371V20.685C17.0282 20.8585 17.1645 20.9948 17.338 20.9948C17.5114 20.9948 17.6477 20.8585 17.6477 20.685Z" fill="#959799"/>
<path d="M15.5301 15.1965V17.1965H17.5301V15.1965H15.5301ZM19.1458 15.1965H17.1458V17.1965H19.1458V15.1965ZM20.2383 15.1965V17.1965H22.2383V15.1965H20.2383ZM14.4375 15.1965H12.4375V17.1965H14.4375V15.1965ZM21.5258 16.8936L19.5262 16.8536L19.5258 16.8736V16.8936H21.5258ZM17.6477 19.0371L17.0153 17.1397L15.6477 17.5956V19.0371H17.6477ZM17.0282 19.0371H19.0282V17.5956L17.6607 17.1397L17.0282 19.0371ZM17.3379 11.3886C15.2341 11.3886 13.5301 13.0927 13.5301 15.1965H17.5301C17.5301 15.3018 17.4432 15.3886 17.3379 15.3886V11.3886ZM21.1458 15.1965C21.1458 13.0927 19.4418 11.3886 17.3379 11.3886V15.3886C17.2326 15.3886 17.1458 15.3018 17.1458 15.1965H21.1458ZM20.2383 13.1965H19.1458V17.1965H20.2383V13.1965ZM17.3379 14.2961C17.836 14.2961 18.2383 14.6984 18.2383 15.1965H22.2383C22.2383 12.4893 20.0452 10.2961 17.3379 10.2961V14.2961ZM16.4375 15.1965C16.4375 14.6984 16.8398 14.2961 17.3379 14.2961V10.2961C14.6307 10.2961 12.4375 12.4893 12.4375 15.1965H16.4375ZM15.5301 13.1965H14.4375V17.1965H15.5301V13.1965ZM20.4231 13.7785H14.2528V17.7785H20.4231V13.7785ZM23.5254 16.9336C23.561 15.1562 22.1122 13.7785 20.4231 13.7785V17.7785C19.9483 17.7785 19.5155 17.392 19.5262 16.8536L23.5254 16.9336ZM23.5258 21.1806V16.8936H19.5258V21.1806H23.5258ZM20.4107 24.2957C22.1348 24.2957 23.5258 22.9047 23.5258 21.1806H19.5258C19.5258 20.6955 19.9257 20.2957 20.4107 20.2957V24.2957ZM14.2528 24.2957H20.4107V20.2957H14.2528V24.2957ZM11.1377 21.1806C11.1377 22.9047 12.5287 24.2957 14.2528 24.2957V20.2957C14.7379 20.2957 15.1377 20.6955 15.1377 21.1806H11.1377ZM11.1377 16.8936V21.1806H15.1377V16.8936H11.1377ZM14.2528 13.7785C12.5287 13.7785 11.1377 15.1695 11.1377 16.8936H15.1377C15.1377 17.3787 14.7379 17.7785 14.2528 17.7785V13.7785ZM15.6477 19.0371V20.685H19.6477V19.0371H15.6477ZM16.3539 18.0831C16.3539 17.8649 16.4291 17.6443 16.565 17.4666C16.6951 17.2963 16.8592 17.1918 17.0153 17.1397L18.2802 20.9345C19.4168 20.5556 20.3539 19.4925 20.3539 18.0831H16.3539ZM17.338 19.0671C16.7909 19.0671 16.3539 18.6301 16.3539 18.0831H20.3539C20.3539 16.4209 19.0001 15.0671 17.338 15.0671V19.0671ZM18.322 18.0831C18.322 18.6301 17.885 19.0671 17.338 19.0671V15.0671C15.6758 15.0671 14.322 16.4209 14.322 18.0831H18.322ZM17.6607 17.1397C17.8167 17.1918 17.9808 17.2963 18.1109 17.4666C18.2468 17.6443 18.322 17.8649 18.322 18.0831H14.322C14.322 19.4925 15.2591 20.5556 16.3957 20.9345L17.6607 17.1397ZM19.0282 20.685V19.0371H15.0282V20.685H19.0282ZM17.338 18.9948C18.2691 18.9948 19.0282 19.7539 19.0282 20.685H15.0282C15.0282 21.963 16.0599 22.9948 17.338 22.9948V18.9948ZM15.6477 20.685C15.6477 19.7539 16.4068 18.9948 17.338 18.9948V22.9948C18.616 22.9948 19.6477 21.963 19.6477 20.685H15.6477Z" fill="white" mask="url(#path-4-outside-1_2434_72201)"/>
</svg>
