<svg width="37" height="33" viewBox="0 0 37 33" fill="none" xmlns="http://www.w3.org/2000/svg">
<path d="M27.3914 20.9929L20.8181 3.11905C20.6415 2.64659 20.2503 2.35948 19.8201 2.26317C19.1517 2.12107 18.4924 2.52687 18.2531 3.15846L17.7814 4.37423C16.5067 7.68028 14.3019 10.5673 11.4264 12.7169L11.0789 12.9741L13.5488 19.6822C17.0398 19.6769 20.4893 20.4115 23.6489 21.8529L25.7186 22.7981C26.7976 23.0736 27.7771 22.0279 27.3914 20.9929ZM24.0962 19.939C24.0962 19.939 21.6091 18.3357 15.7664 18.0667C15.1919 18.0435 14.686 17.6629 14.5024 17.1211L13.2473 13.5123C13.067 12.8884 13.5185 12.6205 13.5185 12.6205C15.6563 11.0249 17.0883 9.03398 18.0398 6.56659L18.4827 5.41213C19.1581 3.1013 19.8801 4.11374 20.1567 4.87962L25.403 19.0118C25.7019 19.9973 25.634 20.8216 24.0962 19.939Z" fill="#464646"/>
<path d="M11.0786 12.9781L3.55963 15.7408C2.62509 16.0813 2.14494 17.0994 2.483 18.0108L3.74118 21.4208C4.07924 22.3323 5.10656 22.7881 6.02954 22.4489L13.5485 19.6862L11.0786 12.9781ZM12.5276 18.9494L6.21327 21.1574C5.06621 21.5895 5.08183 21.2843 4.75083 20.4422L3.89107 18.0776C3.66569 17.47 3.5896 16.9522 4.17528 16.7408L10.8763 14.2015C11.1466 14.1039 11.4671 14.2698 11.5798 14.5736L12.8448 17.9362C13.0923 18.6467 12.7517 18.8565 12.5276 18.9494Z" fill="#464646"/>
<path d="M8.09787 23.0367L8.66875 30.4753C8.71488 31.0428 9.29007 31.4163 9.8307 31.2211C10.8103 30.8644 11.3956 29.8473 11.1972 28.8165L9.97775 22.5767C9.93109 22.3479 9.68346 22.2096 9.47093 22.3013L8.21419 22.803C8.18187 22.8296 8.06983 22.8761 8.09787 23.0367Z" fill="#D11243"/>
<path d="M26.3967 10.167C26.9652 11.6997 26.8341 12.7919 26.7086 13.8417C26.6249 14.5418 27.275 14.4729 27.5692 14.151C28.7678 12.8495 29.2047 10.9483 28.5461 9.18212C27.8874 7.41589 26.2993 6.2698 24.5396 6.07538C24.1026 6.02648 23.3343 6.35 24.0949 6.86802C25.0842 7.54214 25.8282 8.63438 26.3967 10.167Z" fill="#D11243"/>
<path d="M30.8088 8.04732C31.8526 10.7701 31.4374 13.5325 30.4949 15.8583C30.0465 16.9648 31.0777 16.8115 31.6414 16.2211C33.9381 13.8337 34.6947 9.93773 33.4532 6.71683C32.2116 3.49593 29.2848 1.83507 25.9304 1.49449C25.0974 1.40878 24.6006 1.9611 25.6049 2.5662C28.6188 4.38135 29.765 5.32456 30.8088 8.04732Z" fill="#D11243"/>
</svg>
