<svg width="24" height="24" viewBox="0 0 24 24" fill="none" xmlns="http://www.w3.org/2000/svg">
<path d="M15.73 12.53C15.7 12.47 15.65 12.42 15.58 12.43C15.09 12.48 14.36 11.8 14.23 11.67C14.2 11.9 14.11 12.12 13.95 12.28L13.94 12.29C13.91 12.32 13.88 12.34 13.85 12.36C14.12 12.58 14.66 13.08 14.68 13.49C14.68 13.56 14.74 13.6 14.81 13.62C14.91 13.65 15.21 13.6 15.33 13.34C15.35 13.28 15.36 13.22 15.35 13.14C15.42 13.14 15.49 13.12 15.54 13.09C15.78 12.93 15.78 12.63 15.73 12.53Z" fill="#4B4F54"/>
<path d="M13.86 12.01C14.14 11.73 14.18 11.3 13.97 10.96C13.86 10.77 13.76 10.58 13.67 10.38C13.47 9.93 13.3 9.46 13.11 9C12.85 8.38 12.53 7.8 12.03 7.33C11.93 7.24 11.83 7.15 11.73 7.08C11.25 6.73 10.64 6.55 10 6.64C8.83001 6.81 7.96001 7.85 8.00001 9.03C8.01001 9.28 8.06001 9.52 8.14001 9.75C8.14001 9.75 8.15001 9.8 8.19001 9.88C8.32001 10.17 8.50001 10.44 8.73001 10.65C9.08001 11 9.61001 11.36 10.42 11.54C10.49 11.56 10.56 11.58 10.62 11.59C11.08 11.7 11.56 11.76 12.03 11.85C12.42 11.92 12.81 12.02 13.18 12.16C13.4 12.25 13.67 12.2 13.86 12.01C13.85 12.02 13.86 12.02 13.86 12.01Z" fill="#D11243"/>
<path d="M17.45 20.3C17.3 20.3 17.16 20.28 17.02 20.23C15.36 19.64 13.56 19.34 11.67 19.34C9.08001 19.34 7.00001 19.91 6.22001 20.16C6.11001 20.19 6.01001 20.21 5.89001 20.21C5.57001 20.21 5.26001 20.07 5.06001 19.81L5.05001 19.79L3.31001 17.43C3.15001 17.21 3.10001 16.93 3.17001 16.67C3.25001 16.41 3.43001 16.2 3.69001 16.1C5.11001 15.55 8.04001 14.63 11.79 14.63C14.43 14.63 17.01 15.09 19.45 16.01C19.71 16.11 19.91 16.31 20 16.58C20.09 16.84 20.06 17.13 19.92 17.37L18.55 19.67C18.33 20.05 17.91 20.3 17.45 20.3Z" fill="#4B4F54"/>
<path d="M4.48001 20.22L2.74001 17.86C2.64001 17.73 2.58001 17.59 2.53001 17.44L0.64001 18.39C0.30001 18.56 0.34001 19.06 0.71001 19.17L2.59001 19.38C2.87001 19.41 3.06001 19.69 2.98001 19.97L2.46001 21.7C2.44001 22.02 2.78001 22.24 3.07001 22.1L5.51001 20.88C5.12001 20.79 4.76001 20.57 4.48001 20.22Z" fill="#4B4F54"/>
<path d="M23.21 18.14L20.75 17.17C20.72 17.37 20.67 17.56 20.56 17.74L19.19 20.04C18.91 20.51 18.46 20.83 17.94 20.96L21.13 22.42C21.46 22.55 21.8 22.28 21.76 21.93L21.03 20.31C20.88 19.97 21.09 19.58 21.46 19.53L23.22 19.28C23.72 19.06 23.71 18.34 23.21 18.14Z" fill="#4B4F54"/>
<path d="M3.42001 15.45C3.43001 15.45 3.43001 15.44 3.44001 15.43C3.78001 15.3 4.21001 15.15 4.71001 15C4.12001 13.73 3.65001 12.4 3.31001 11.03C3.01001 9.85 2.79001 8.64 2.65001 7.43L2.59001 6.97L2.57001 6.74C2.56001 6.67 2.56001 6.61 2.58001 6.55C2.61001 6.43 2.68001 6.31 2.78001 6.24C2.83001 6.2 2.88001 6.18 2.95001 6.16L3.18001 6.11C3.78001 5.98 4.38001 5.81 4.96001 5.61C6.13001 5.22 7.25001 4.71 8.32001 4.1C8.60001 3.95 8.87001 3.77 9.14001 3.6C9.24001 3.54 9.33001 3.48 9.42001 3.43C9.66001 3.28 9.90001 3.12 10.14 2.96C10.59 2.66 10.93 2.4 11.21 2.19C11.27 2.15 11.32 2.11 11.38 2.07C11.44 2.01 11.51 1.97 11.58 1.93C11.59 1.92 11.6 1.92 11.61 1.91C11.65 1.89 11.7 1.89 11.75 1.88C11.8 1.87 11.85 1.86 11.91 1.87C11.95 1.87 11.98 1.88 12.02 1.89C12.13 1.91 12.24 1.95 12.37 2.04C12.66 2.25 13.09 2.55 13.59 2.88C13.84 3.05 14.1 3.21 14.35 3.37C14.51 3.47 14.66 3.56 14.83 3.66C15.04 3.79 15.24 3.92 15.46 4.04C16.53 4.64 17.64 5.18 18.81 5.58C19.39 5.77 19.99 5.94 20.6 6.06L20.83 6.1C20.89 6.11 20.95 6.14 21.01 6.18C21.11 6.26 21.19 6.38 21.21 6.51C21.22 6.58 21.22 6.64 21.21 6.71L21.19 6.94L21.13 7.4C20.98 8.61 20.75 9.82 20.45 11C20.15 12.18 19.77 13.34 19.29 14.46C19.2 14.68 19.08 14.88 18.98 15.1C19.23 15.18 19.48 15.25 19.72 15.34C19.91 15.41 20.06 15.53 20.2 15.65C20.33 15.36 20.47 15.08 20.59 14.77C21.91 11.44 22.28 8.05 22.38 6.75C22.45 5.86 21.83 5.07 20.98 4.94C17.55 4.42 14.24 2.29 12.97 1.4C12.28 0.91 11.37 0.93 10.7 1.44C9.62001 2.27 6.66001 4.28 2.72001 5C1.89001 5.16 1.31001 5.93 1.37001 6.8C1.46001 8.09 1.81001 11.46 3.12001 14.78C3.22001 15.01 3.32001 15.22 3.42001 15.45Z" fill="#4B4F54"/>
<path d="M14.68 20.35C14.29 20.6 13.9 20.83 13.48 21.02C13.21 21.14 12.93 21.25 12.66 21.34L12.45 21.41L12.34 21.44C12.31 21.45 12.28 21.46 12.25 21.46C12.13 21.49 12 21.5 11.87 21.51C11.74 21.51 11.62 21.5 11.49 21.47C11.38 21.44 11.22 21.39 11.09 21.35C10.81 21.26 10.53 21.15 10.26 21.03C9.79 20.82 9.34 20.57 8.91 20.28C8.16 20.4 7.53 20.54 7.06 20.66C8.21 21.66 9.5 22.39 10.95 22.82C11.24 22.91 11.54 22.95 11.84 22.95C12.14 22.95 12.44 22.91 12.73 22.82C14.11 22.41 15.35 21.73 16.46 20.81C15.89 20.62 15.29 20.47 14.68 20.35Z" fill="#4B4F54"/>
</svg>
