<svg width="21" height="20" viewBox="0 0 21 20" fill="none" xmlns="http://www.w3.org/2000/svg">
<path d="M8.05119 0.397827C3.991 0.397827 0.694824 3.694 0.694824 7.75419C0.694824 11.8144 3.991 15.1106 8.05119 15.1106C12.1114 15.1106 15.4076 11.8144 15.4076 7.75419C15.4076 3.694 12.1114 0.397827 8.05119 0.397827ZM7.72376 13.7026C4.42758 13.7026 1.76444 11.0285 1.76444 7.74328C1.76444 4.45802 4.42758 1.77305 7.72376 1.77305C11.0199 1.77305 13.6831 4.4471 13.6831 7.73237C13.6831 11.0176 11.0199 13.7026 7.72376 13.7026Z" fill="#959799"/>
<path d="M20.4394 18.188L14.622 12.96C14.2618 13.4075 13.858 13.8222 13.4214 14.1933L17.7217 18.9738C18.4421 19.7815 19.6972 19.8143 20.4612 19.0502C20.7014 18.8101 20.7014 18.4172 20.4394 18.188Z" fill="#959799"/>
</svg>
