<svg width="24" height="24" viewBox="0 0 24 24" fill="none" xmlns="http://www.w3.org/2000/svg">
<path d="M6.82997 8.41C6.82997 8.4 6.82997 8.4 6.82997 8.41C6.53997 8.41 6.31997 8.67 6.36997 8.95C6.46997 9.55 6.98997 9.98 7.57997 9.98C7.60997 9.98 7.62997 9.98 7.65997 9.98L14.79 9.53C15.03 9.51 15.22 9.31 15.22 9.07V9C15.22 8.75 15.02 8.54 14.77 8.54L6.82997 8.41Z" fill="#959799"/>
<path d="M6.82997 5.25C6.53997 5.25 6.31997 5.51 6.36997 5.79C6.46997 6.39 6.98997 6.82 7.57997 6.82C7.60997 6.82 7.62997 6.82 7.65997 6.82L14.79 6.37C15.03 6.35 15.22 6.15 15.22 5.91V5.85C15.22 5.6 15.02 5.39 14.77 5.39L6.82997 5.25Z" fill="#959799"/>
<path d="M6.82997 11.67C6.53997 11.67 6.31997 11.93 6.36997 12.21C6.46997 12.81 6.98997 13.24 7.57997 13.24C7.60997 13.24 7.62997 13.24 7.65997 13.24L14.79 12.79C15.03 12.77 15.22 12.57 15.22 12.33V12.27C15.22 12.02 15.02 11.81 14.77 11.81L6.82997 11.67Z" fill="#959799"/>
<path d="M21.04 14.47C19.26 14.2 17.55 13.1 16.94 12.66C16.87 12.61 16.79 12.58 16.71 12.58C16.62 12.58 16.54 12.61 16.46 12.66C15.9 13.09 14.38 14.11 12.36 14.48C12.22 14.51 12.12 14.64 12.13 14.8C12.22 16.03 12.79 21.03 16.4 22.1C16.49 22.13 16.59 22.14 16.68 22.14C16.78 22.14 16.87 22.13 16.96 22.1C20.57 21.03 21.17 16.03 21.26 14.78C21.28 14.63 21.18 14.49 21.04 14.47ZM19.89 15.7L16.8 19.9C16.55 20.24 16.07 20.29 15.75 20.02L14.49 18.96C13.95 18.5 13.93 17.67 14.45 17.19C14.6 17.05 14.82 17.05 14.97 17.19L16.21 18.35C16.3 18.44 16.45 18.44 16.54 18.34L19.39 15.44C19.51 15.32 19.7 15.3 19.84 15.4C19.94 15.46 19.96 15.6 19.89 15.7Z" fill="#959799"/>
<path d="M12.32 18.95H5.57998C4.84998 18.95 4.26998 18.34 4.26998 17.6L4.81998 4.16001C4.81998 3.41001 5.40998 2.81001 6.12998 2.81001H12.55H14.6C15.4 2.81001 16.06 3.48001 16.06 4.31001L16.62 11.87C16.65 11.87 16.67 11.86 16.7 11.86C16.94 11.86 17.16 11.93 17.36 12.07C17.4 12.1 17.47 12.14 17.52 12.18L16.98 4.34001C16.98 2.96001 15.87 1.85001 14.49 1.85001H12.01H5.97998C4.70998 1.85001 3.67998 2.88001 3.67998 4.15001L2.72998 18.34C2.72998 19.61 3.75998 20.64 5.02998 20.64H13.25C12.87 20.11 12.57 19.54 12.32 18.95Z" fill="#959799"/>
<path d="M11.44 15.25L6.83 15.17H6.82C6.54 15.17 6.32 15.43 6.36 15.71C6.46 16.31 6.98 16.74 7.57 16.74C7.6 16.74 7.62 16.74 7.65 16.74L11.6 16.49C11.53 16.02 11.47 15.59 11.44 15.25Z" fill="#959799"/>
</svg>
